<svg width="240" height="62" viewBox="0 0 240 62" fill="none" xmlns="http://www.w3.org/2000/svg">
<g clip-path="url(#clip0_375_364)">
<path d="M60.3154 25.0967L52.275 33.8959L52.8441 34.4158L60.8844 25.6167L60.3154 25.0967Z" fill="white"/>
<path d="M60.8489 31.7634L51.0672 38.5745L51.5517 39.2703L61.3334 32.4592L60.8489 31.7634Z" fill="white"/>
<path d="M59.9538 38.213L48.9274 42.7397L49.276 43.5889L60.3024 39.0621L59.9538 38.213Z" fill="white"/>
<path d="M57.7409 44.2028L46.0033 46.2766L46.1752 47.2496L57.9129 45.1757L57.7409 44.2028Z" fill="white"/>
<path d="M42.4314 49.1097L42.3937 50.1742L54.3056 50.5964L54.3433 49.532L42.4314 49.1097Z" fill="white"/>
<path d="M38.3457 51.1361L38.0681 52.2368L49.6259 55.1507L49.9034 54.0499L38.3457 51.1361Z" fill="white"/>
<path d="M33.8898 52.2627L33.3519 53.3412L44.018 58.6615L44.556 57.583L33.8898 52.2627Z" fill="white"/>
<path d="M29.2005 52.3893L28.3907 53.3836L37.6328 60.9105L38.4426 59.9162L29.2005 52.3893Z" fill="white"/>
<path d="M24.452 51.4804L23.387 52.314L30.7336 61.7002L31.7985 60.8667L24.452 51.4804Z" fill="white"/>
<path d="M20.1731 49.615L18.8884 50.2256L24.0048 60.991L25.2895 60.3804L20.1731 49.615Z" fill="white"/>
<path d="M16.4854 46.9239L15.0248 47.2635L17.7243 58.8732L19.1849 58.5335L16.4854 46.9239Z" fill="white"/>
<path d="M13.471 43.5553L11.9016 43.5821L12.1055 55.4998L13.6749 55.473L13.471 43.5553Z" fill="white"/>
<path d="M9.61972 39.324L7.32701 51.0209L8.9361 51.3363L11.2288 39.6394L9.61972 39.324Z" fill="white"/>
<path d="M8.28752 34.6393L3.55375 45.5784L5.12934 46.2602L9.86311 35.3211L8.28752 34.6393Z" fill="white"/>
<path d="M7.99682 29.6834L0.995809 39.33L2.44196 40.3796L9.44297 30.7329L7.99682 29.6834Z" fill="white"/>
<path d="M8.82614 24.5867L-0.136719 32.4442L1.0874 33.8405L10.0503 25.9831L8.82614 24.5867Z" fill="white"/>
<path d="M10.7251 19.9065L0.254052 25.6012L1.17807 27.3002L11.6491 21.6055L10.7251 19.9065Z" fill="white"/>
<path d="M13.5412 15.8572L2.09278 19.1746L2.65056 21.0995L14.099 17.7821L13.5412 15.8572Z" fill="white"/>
<path d="M17.1063 12.5296L5.21593 13.361L5.3611 15.4371L17.2515 14.6057L17.1063 12.5296Z" fill="white"/>
<path d="M9.48625 8.35531L9.18425 10.4853L20.9856 12.1585L21.2876 10.0286L9.48625 8.35531Z" fill="white"/>
<path d="M14.7549 4.33064L13.9846 6.41412L25.1644 10.5474L25.9347 8.46396L14.7549 4.33064Z" fill="white"/>
<path d="M20.8718 1.47449L19.6268 3.40644L29.6458 9.86329L30.8909 7.93134L20.8718 1.47449Z" fill="white"/>
<path d="M27.6798 0.00195312L25.9888 1.66026L34.3343 10.1705L36.0253 8.51223L27.6798 0.00195312Z" fill="white"/>
<path d="M34.6673 0.0659511L32.591 1.3448L38.8419 11.4936L40.9182 10.2148L34.6673 0.0659511Z" fill="white"/>
<path d="M41.2777 1.63009L38.9002 2.45241L42.7965 13.717L45.174 12.8947L41.2777 1.63009Z" fill="white"/>
<path d="M47.2945 4.52993L44.7271 4.83699L46.1426 16.6721L48.71 16.365L47.2945 4.52993Z" fill="white"/>
<path d="M49.8936 8.38378L48.7885 20.2518L51.4328 20.4981L52.5379 8.63001L49.8936 8.38378Z" fill="white"/>
<path d="M54.2008 12.9383L50.6046 24.3023L53.2101 25.1268L56.8063 13.7628L54.2008 12.9383Z" fill="white"/>
<path d="M57.5038 18.3957L51.5332 28.7119L53.9592 30.1159L59.9297 19.7997L57.5038 18.3957Z" fill="white"/>
<g clip-path="url(#clip1_375_364)">
<path d="M78.8511 13.2222V27.1711H81.6102V13.2222H78.8511Z" fill="white"/>
<path d="M96.3096 13.2222V18.7404C96.3096 20.0598 96.3315 21.0014 96.4683 22.2441H96.4081C95.5048 21.0014 94.7548 20.0762 94.0048 19.1346L89.16 13.2222H86.6362V27.1711H89.3735V21.297C89.3735 19.9776 89.357 19.0141 89.2366 17.7933H89.2804C90.2056 19.0141 90.972 19.9776 91.7384 20.9028L97.1198 27.3517H99.0687V13.2222H96.3096Z" fill="white"/>
<path d="M102.757 13.2222V15.724H107.252V27.1711H110.049V15.724H114.538V13.2222H102.757Z" fill="white"/>
<path d="M120.988 21.2203H126.408V18.9156H120.988V15.6036H126.961L126.682 13.2222H118.229V27.1711H126.682L126.961 24.7897H120.988V21.2203Z" fill="white"/>
<path d="M134.328 24.6692V13.2222H131.569V27.1711H140.241L140.558 24.6692H134.328Z" fill="white"/>
<path d="M147.081 24.6692V13.2222H144.322V27.1711H152.993L153.311 24.6692H147.081Z" fill="white"/>
<path d="M157.071 13.2222V27.1711H159.83V13.2222H157.071Z" fill="white"/>
<path d="M172.307 19.6823V21.8338H175.718V21.9104C175.521 23.9798 173.763 25.0254 171.656 25.0254C169.077 25.0254 167.265 23.0163 167.265 20.2571C167.265 17.498 169.176 15.4451 171.776 15.4451C173.566 15.4451 174.749 16.1349 175.696 17.5966L176.03 17.6732L178.099 16.3757C176.763 14.0272 174.552 12.8447 171.678 12.8447C167.462 12.8447 164.265 15.883 164.265 20.2571C164.265 24.6312 167.183 27.5436 171.207 27.5436C173.271 27.5436 174.891 26.7991 175.953 25.1239L175.991 25.1403C175.855 25.5564 175.756 26.0108 175.756 26.5199V27.1714H178.258V19.6823H172.307Z" fill="white"/>
<path d="M185.806 21.2203H191.226V18.9156H185.806V15.6036H191.779L191.499 13.2222H183.047V27.1711H191.499L191.779 24.7897H185.806V21.2203Z" fill="white"/>
<path d="M206.067 13.2222V18.7404C206.067 20.0598 206.083 21.0014 206.225 22.2441H206.165C205.256 21.0014 204.506 20.0762 203.762 19.1346L198.911 13.2222H196.388V27.1711H199.13V21.297C199.13 19.9776 199.109 19.0141 198.994 17.7933H199.032C199.957 19.0141 200.723 19.9776 201.495 20.9028L206.871 27.3517H208.826V13.2222H206.067Z" fill="white"/>
<path d="M224.905 22.6604L224.571 22.7371C223.668 24.2535 222.485 24.9433 220.711 24.9433C218.188 24.9433 216.239 22.956 216.239 20.1969C216.239 17.4378 218.149 15.4451 220.668 15.4451C222.365 15.4451 223.585 16.1349 224.494 17.6732L224.85 17.7553L226.898 16.4524C225.578 14.0272 223.35 12.8447 220.569 12.8447C216.43 12.8447 213.239 15.883 213.239 20.1969C213.239 24.5108 216.392 27.5436 220.591 27.5436C223.372 27.5436 225.54 26.383 226.936 23.9579L224.905 22.6604Z" fill="white"/>
<path d="M233.954 21.2203H239.374V18.9156H233.954V15.6036H239.922L239.648 13.2222H231.195V27.1711H239.648L239.922 24.7897H233.954V21.2203Z" fill="white"/>
<path d="M85.9679 43.1014C87.6376 42.5101 88.5682 41.2291 88.5682 39.4116C88.5682 36.5375 86.8109 35.1196 83.5208 35.1196H78.8511V37.4025H83.2252C84.9989 37.4025 85.8474 37.9554 85.8474 39.4116C85.8474 40.7747 85.0208 41.3441 83.2252 41.3441H78.8511V43.5339H83.2087L86.9697 49.0685H89.8492L89.9861 48.7346L85.9679 43.1014Z" fill="white"/>
<path d="M96.1576 43.1178H101.577V40.8131H96.1576V37.501H102.125L101.851 35.1196H93.3984V49.0685H101.851L102.125 46.6871H96.1576V43.1178Z" fill="white"/>
<path d="M109.498 43.1178H114.918V40.8131H109.498V37.501H115.471L115.192 35.1196H106.739V49.0685H115.192L115.471 46.6871H109.498V43.1178Z" fill="white"/>
<path d="M122.839 46.5667V35.1196H120.08V49.0685H128.752L129.069 46.5667H122.839Z" fill="white"/>
</g>
</g>
<defs>
<clipPath id="clip0_375_364">
<rect width="240" height="61.6642" fill="white"/>
</clipPath>
<clipPath id="clip1_375_364">
<rect width="161.069" height="36.2245" fill="white" transform="translate(78.8496 12.8452)"/>
</clipPath>
</defs>
</svg>
