<?xml version="1.0" encoding="UTF-8"?>
<svg id="Layer_1" xmlns="http://www.w3.org/2000/svg" version="1.1" viewBox="0 0 600 600">
  <!-- Generator: Adobe Illustrator 30.1.0, SVG Export Plug-In . SVG Version: 2.1.1 Build 136)  -->
  <path d="M247.4,83.1l16.4,16.1,80.9-82.6L328.3.5l-81,82.6h.1ZM297,77.5l12.1,18.7,97.2-62.7-12.1-18.7-97.1,62.7h-.1,0ZM220,112.1l60.6-98.5-20.1-12.4-60.6,98.5,20.1,12.4ZM390.3,97.9h0l2.9,20.7,114.5-16.3-2.9-20.7-114.5,16.3h0ZM544.7,150.4l1.4-20.1-115.3-8.1-1.4,20.1,115.3,8.1h0ZM519.1,288.5h0l-14,10.2,67.9,93.7,14-10.2-67.9-93.6h0ZM345.2,82.6h0l7.5,20.2,108.4-40.1-7.5-20.2-108.4,40.1h0ZM181.6,133.7l37.8-109.4-23-8-37.8,109.4,23,8ZM149.2,162.4l13.7-114.9-24.9-3-13.7,114.9,24.9,3ZM89.8,329.5L11.8,244.1l-5.5,5.1,78,85.4,5.5-5.1ZM97,279.2l-57.9-100.2-23.5,13.6,57.9,100.2,23.5-13.6ZM6.7,308.8l-4.7,6.7,94.8,66.1,4.7-6.7L6.7,308.8ZM98,199.4l25.7-2.4-10.7-115.2-25.7,2.4,10.7,115.2ZM105.9,236.4l-34.9-110.3-25.2,8,34.9,110.3s25.2-8,25.2-8ZM273.3,518.3h0l-5.2-10.5-103.4,51.6,5.2,10.5,103.4-51.6h0ZM313.6,509.1l-89.6,73.1,7.8,9.6,89.6-73.1-7.8-9.6ZM413.6,488h0l-12.5-5.9-49.6,104.5,12.5,5.9,49.6-104.5h0ZM369.9,508.4h0l-10.3-8.1-71.3,91.1,10.3,8.1,71.3-91.1h0ZM499.2,252.8l86.9,76.3,11.9-13.6-86.9-76.3-11.9,13.6h0ZM122.2,415.4h0l-106.9-43.9-3.4,8.3,107,43.9,3.4-8.3h0ZM185.6,487.6h0l-.4-10.3-115.5,4.1.4,10.3,115.5-4.1h0ZM150.6,449.7h0l-113.8-20.2-1.7,9.5,113.8,20.2,1.7-9.5h0ZM227.5,507.6h0l-2.7-10.7-112.1,28.3,2.7,10.7,112.1-28.3h0ZM492.7,193.7l-9,16.5,101.5,55.3,9-16.5-101.5-55.3ZM503.3,382.2l-15.6,3.1,22.3,113.6,15.6-3.1-22.3-113.6ZM516.3,336.8h0l-15.3,6.6,45.9,106.2,15.3-6.6-45.9-106.2h0ZM436.8,456l-26.2,112.7,14.2,3.3,26.2-112.7-14.2-3.3ZM481.2,423.6h0l-15.2-.3-2,115.7,15.2.3,2-115.7h0ZM465.4,154.4l-5.4,18.7,111,32.2,5.4-18.7-111-32.2h0Z" fill="#fff"/>
</svg>